<svg width="41" height="48" viewBox="0 0 41 48" fill="none" xmlns="http://www.w3.org/2000/svg">
<path fill-rule="evenodd" clip-rule="evenodd" d="M31.7065 8.73522V0H9.56521V8.73522H0V38.5432H9.56521V48H31.7065V38.5432H41V8.73522H31.7065ZM39.4946 35.7827H29.7935V33.454H31.8478V18.766C31.8478 17.4486 31.5652 16.5849 31.0217 15.8579C30.4728 15.273 29.663 14.8411 28.5543 14.8411C27.7391 14.8411 26.9239 15.1418 26.1087 15.5682C25.1522 16.0055 24.3315 16.5904 23.5054 17.4541V33.4595H25.5598V35.7936H15.8587V33.4595H17.9022V18.7714C17.9022 17.454 17.625 16.5904 17.0815 15.8633C16.5435 15.2784 15.7174 14.8466 14.6196 14.8466C13.9402 14.8466 13.125 15.1473 12.1522 15.5736C11.3369 16.0109 10.5326 16.5958 9.70651 17.4595V33.465H11.7609V35.7991H2.04891V33.465H4.10325V14.8466L2.04891 15.426V13.1028L9.42934 10.632H9.70651L9.56521 14.5569C11.2065 13.1028 12.5761 12.0861 13.8043 11.5067C15.0326 10.7742 16.2663 10.4845 17.3587 10.4845C18.5815 10.4845 19.6793 10.9163 20.7772 11.6488C21.8641 12.3758 22.5489 13.3926 23.0978 14.7045C24.5978 13.245 26.1087 12.2337 27.3315 11.5067C28.6956 10.9163 29.9239 10.4845 31.0217 10.4845C33.0706 10.4845 34.5761 11.2279 35.663 12.5289C36.7609 13.8244 37.4402 15.7267 37.4402 18.0499V33.465H39.5V35.7827H39.4946Z" fill="#E2202C"/>
</svg>
