<svg width="152" height="25" viewBox="0 0 152 25" fill="none" xmlns="http://www.w3.org/2000/svg">
<path fill-rule="evenodd" clip-rule="evenodd" d="M0 0.520752H6.00647V2.01296H4.66295V16.8343H6.00647V18.3265H0V16.8343H1.41097V2.01296H0V0.520752Z" fill="#138FCE"/>
<path fill-rule="evenodd" clip-rule="evenodd" d="M9.39892 17.1338V7.59825L8.40674 7.89501V6.70516L12.2265 5.43973H12.3698L12.2939 7.52546C13.1428 6.85074 13.8511 6.26002 14.5566 5.88767C15.262 5.58531 15.9001 5.36414 16.5353 5.36414C17.5275 5.36414 18.3032 5.74489 18.8654 6.4112C19.5034 7.07472 19.7901 8.04899 19.7901 9.23884V17.1338H20.8525V18.3293H15.8298V17.1338H16.8866V9.61119C16.8866 8.93648 16.7461 8.49413 16.4622 8.12178C16.1811 7.82222 15.7567 7.60105 15.1974 7.60105C14.6971 7.60105 14.2811 7.75503 13.7808 8.04899C13.2158 8.27016 12.7886 8.64251 12.2967 9.08766V17.1338H13.3592V18.3293H8.40955V17.1338H9.39892Z" fill="#138FCE"/>
<path fill-rule="evenodd" clip-rule="evenodd" d="M127.912 17.1338V7.59825L126.923 7.89501V6.70516L130.742 5.43973H130.883L130.81 7.52546C131.659 6.85074 132.361 6.26002 133.072 5.88767C133.781 5.58531 134.419 5.36414 135.054 5.36414C136.041 5.36414 136.819 5.74489 137.387 6.4112C138.019 7.07472 138.303 8.04899 138.303 9.23884V17.1338H139.36V18.3293H134.346V17.1338H135.405V9.61119C135.405 8.93648 135.262 8.49413 134.978 8.12178C134.697 7.82222 134.273 7.60105 133.705 7.60105C133.213 7.60105 132.789 7.75503 132.291 8.04899C131.729 8.27016 131.302 8.64251 130.807 9.08766V17.1338H131.864V18.3293H126.917V17.1338H127.912Z" fill="#138FCE"/>
<path fill-rule="evenodd" clip-rule="evenodd" d="M26.1484 2.83032L26.9298 3.05429V5.88473H29.1924L29.0491 6.9262C29.0491 7.14457 28.9788 7.29855 28.9085 7.37414C28.8411 7.44693 28.6949 7.44693 28.4841 7.44693H26.9326V14.9668C26.9326 15.6415 27.0731 16.0866 27.2137 16.3862C27.357 16.6857 27.6381 16.8313 28.0597 16.8313C28.2059 16.8313 28.4138 16.7557 28.56 16.6857C28.6949 16.6102 28.9113 16.5374 29.1952 16.3106L29.6871 17.1309C29.1952 17.6516 28.6949 18.0968 28.13 18.3263C27.5678 18.6231 27.0029 18.6903 26.4351 18.6903C25.5835 18.6903 25.0185 18.4747 24.5969 18.0268C24.24 17.5032 24.0292 16.6857 24.0292 15.5659V7.44693H22.8262V6.48105C23.675 6.1087 24.3833 5.58237 24.878 4.99444C25.4429 4.39532 25.8645 3.64782 26.1484 2.83032Z" fill="#138FCE"/>
<path fill-rule="evenodd" clip-rule="evenodd" d="M40.7803 14.8269C40.2856 15.3448 39.7937 15.7144 39.2231 15.9439C38.7313 16.1651 38.1663 16.3163 37.5311 16.3163C36.9633 16.3163 36.3984 16.1679 35.974 15.9439C35.6901 15.7956 35.4821 15.6444 35.2657 15.496C34.7007 14.8997 34.2032 14.155 33.9221 13.0379L35.974 12.3716L39.8612 10.9522C40.0748 10.8766 40.353 10.8038 40.7072 10.6526C41.2047 10.577 41.4127 10.4315 41.4127 10.2775C41.4127 10.0563 41.2749 9.68395 41.0585 9.08763C40.7774 8.41851 40.4992 7.89778 40.1422 7.44984C39.6447 6.77513 39.0067 6.25999 38.3743 5.88764C37.7391 5.58528 37.1039 5.4397 36.3281 5.4397H35.974C34.5574 5.51529 33.3572 6.1844 32.3706 7.37985C31.2407 8.64249 30.6758 10.2803 30.6758 12.1448C30.6758 14.0766 31.1677 15.6472 32.1542 16.9098C33.1492 18.1053 34.4168 18.696 35.974 18.696H36.0442C37.101 18.696 38.0932 18.4804 39.0067 17.9569C39.9314 17.4334 40.7774 16.6159 41.4829 15.6472L40.7803 14.8269ZM33.4275 10.9494V10.2747C33.4275 9.3116 33.6411 8.49131 34.0627 7.89218C34.4871 7.22587 35.052 6.92631 35.6901 6.92631H35.974C36.4658 7.0019 36.8902 7.22587 37.3118 7.67101C37.8093 8.19174 38.1635 9.01204 38.5176 9.97791L35.974 10.7982L33.4949 11.6969C33.4977 11.4701 33.4275 11.1762 33.4275 10.9494Z" fill="#138FCE"/>
<path fill-rule="evenodd" clip-rule="evenodd" d="M51.1013 5.28845L52.0148 5.74479L50.6038 9.16596C50.1822 8.86639 49.8983 8.64242 49.6172 8.56963C49.3333 8.41565 49.0467 8.34566 48.7712 8.34566C48.3412 8.34566 47.9167 8.56963 47.7059 8.93918C47.4249 9.31714 47.2843 9.83507 47.2843 10.5042V17.1365H48.625V18.332H43.3241V17.1337H44.3809V9.53551C44.3809 9.08756 44.3078 8.86639 44.3078 8.7908C44.2432 8.64242 44.097 8.56963 43.9565 8.41565L43.4646 9.01477L42.686 8.19448L44.662 5.36404C45.3028 5.74479 45.7975 6.11155 46.1516 6.4839C46.4383 6.85065 46.7194 7.2286 46.8571 7.75214C47.2815 6.85065 47.6329 6.25993 47.9898 5.88758C48.3412 5.58521 48.6953 5.36404 49.0467 5.36404C49.2659 5.36404 49.5441 5.43963 49.8252 5.51242C50.1119 5.6608 50.393 5.80919 50.7471 5.95757L51.1013 5.28845Z" fill="#138FCE"/>
<path fill-rule="evenodd" clip-rule="evenodd" d="M82.9015 15.9411C82.3337 16.1623 81.7688 16.3135 81.2038 16.3135C80.563 16.3135 80.0711 16.1651 79.5792 15.9411C79.3628 15.7928 79.1548 15.6416 78.9412 15.4932C78.3032 14.8969 77.8759 14.1522 77.5274 13.0351L79.5764 12.3688L83.5311 10.9494C83.7447 10.8738 84.0286 10.801 84.3771 10.6498C84.8099 10.5742 85.0882 10.4286 85.0882 10.2747C85.0882 10.0535 84.9448 9.68115 84.661 9.08482C84.4502 8.41571 84.096 7.89497 83.7447 7.44703C83.25 6.77232 82.6822 6.25718 82.0526 5.88483C81.4118 5.58247 80.7091 5.43689 79.9952 5.43689H79.5764C78.1654 5.51248 77.0327 6.18159 75.9731 7.37704C74.9163 8.63968 74.3457 10.2775 74.3457 12.142C74.3457 14.0738 74.8404 15.6444 75.8269 16.907C76.8135 18.1025 78.0896 18.6932 79.5764 18.6932H79.6467C80.7091 18.6932 81.6957 18.4776 82.685 17.9541C83.6041 17.4305 84.3771 16.6131 85.091 15.6444L84.3799 14.8269C83.9611 15.3448 83.3962 15.7144 82.9015 15.9411ZM77.1086 10.9494C77.0384 10.7254 77.0384 10.5014 77.0384 10.2747C77.0384 9.31159 77.2463 8.4913 77.6736 7.89217C78.1711 7.22586 78.6573 6.9263 79.3684 6.9263H79.5848C80.0767 7.00189 80.5686 7.22586 80.993 7.671C81.4933 8.19174 81.8447 9.01203 82.1285 9.97791L79.5848 10.7982L77.1817 11.6969C77.1086 11.4701 77.1086 11.1762 77.1086 10.9494Z" fill="#138FCE"/>
<path fill-rule="evenodd" clip-rule="evenodd" d="M97.6019 17.1338V2.01573L98.5913 1.57059V0.296753L93.577 2.08292V3.42675L94.7041 3.0544V6.32718C94.2853 6.03042 93.7878 5.80645 93.3606 5.58247C92.939 5.43689 92.5118 5.3613 92.093 5.3613H91.9496C90.4656 5.3613 89.1923 6.03042 88.1299 7.44704C87.1405 8.78806 86.5728 10.4986 86.5728 12.5144C86.5728 14.3789 87 15.86 87.8488 16.9826C88.692 18.1669 89.8275 18.6904 91.1682 18.6904C91.4493 18.6904 91.7304 18.6904 92.093 18.6204C92.3656 18.542 92.6579 18.3936 92.939 18.2425C93.577 17.9485 94.142 17.5005 94.7041 16.9014L94.9205 18.3236H98.6588V17.1338H97.6019ZM94.7041 15.4148C94.4202 15.7928 94.0689 16.0895 93.7147 16.2379C93.2903 16.4619 92.939 16.6131 92.5877 16.6131C92.3656 16.6131 92.2335 16.5375 92.0958 16.5375C91.3847 16.3891 90.8225 15.9411 90.325 15.118C89.7573 14.1522 89.4762 12.8811 89.4762 11.3945C89.4762 10.0535 89.7573 8.93364 90.2548 8.11615C90.7494 7.29585 91.3847 6.84791 92.0958 6.77232H92.3038C93.0093 6.77232 93.6501 7.07188 94.0745 7.59542C94.4989 8.04336 94.7097 8.78526 94.7097 9.68115L94.7041 15.4148Z" fill="#138FCE"/>
<path fill-rule="evenodd" clip-rule="evenodd" d="M101.632 2.75773C101.632 2.31539 101.843 1.86464 102.124 1.48949C102.478 1.11714 102.83 0.971558 103.327 0.971558C103.752 0.971558 104.176 1.11714 104.463 1.48949C104.814 1.86744 104.954 2.237 104.954 2.75773C104.954 3.27846 104.814 3.7292 104.463 4.02037C104.179 4.39832 103.752 4.61949 103.327 4.61949C102.903 4.61949 102.481 4.39832 102.124 4.02037C101.84 3.64801 101.632 3.27846 101.632 2.75773ZM104.814 5.36419H104.954C104.881 5.74495 104.881 6.1117 104.881 6.41126V17.1339H105.944V18.3293H100.927V17.1339H101.992V7.59831L100.927 7.89507V6.70522L104.814 5.36419Z" fill="#138FCE"/>
<path fill-rule="evenodd" clip-rule="evenodd" d="M120.818 2.75773C120.818 2.31539 121.026 1.86464 121.31 1.48949C121.661 1.11714 122.018 0.971558 122.504 0.971558C122.932 0.971558 123.356 1.11714 123.64 1.48949C123.991 1.86744 124.132 2.237 124.132 2.75773C124.132 3.27846 123.991 3.7292 123.64 4.02037C123.356 4.39832 122.932 4.61949 122.504 4.61949C122.083 4.61949 121.658 4.39832 121.31 4.02037C121.026 3.64801 120.818 3.27846 120.818 2.75773ZM123.994 5.36419H124.135C124.067 5.74495 124.067 6.1117 124.067 6.41126V17.1339H125.124V18.3293H120.107V17.1339H121.169V7.59831L120.107 7.89507V6.70522L123.994 5.36419Z" fill="#138FCE"/>
<path fill-rule="evenodd" clip-rule="evenodd" d="M118.164 7.75212L116.118 9.83225C115.764 8.86637 115.339 8.12167 114.845 7.60093C114.35 7.15019 113.785 6.93182 113.22 6.93182C112.439 6.93182 111.733 7.30417 111.239 7.97329C110.744 8.71519 110.463 9.68947 110.463 10.8037C110.463 12.3715 110.885 13.6342 111.663 14.7512C112.439 15.8655 113.364 16.3918 114.35 16.3918C114.912 16.3918 115.48 16.2434 115.972 15.9467C116.467 15.6471 116.97 15.272 117.386 14.6784L118.021 15.2748C117.526 16.3946 116.826 17.2121 115.972 17.8084C115.129 18.4019 114.139 18.6959 113.147 18.6959C111.517 18.6959 110.246 18.1724 109.26 17.0665C108.273 15.8655 107.776 14.3845 107.776 12.5927C107.776 10.5826 108.408 8.94196 109.611 7.52814C110.744 6.11433 112.158 5.36682 113.785 5.36682C114.704 5.36682 115.48 5.58799 116.185 5.96314C116.899 6.3299 117.608 6.92902 118.164 7.75212Z" fill="#138FCE"/>
<path fill-rule="evenodd" clip-rule="evenodd" d="M150.946 17.1338V9.75958C150.946 8.27017 150.592 7.22871 149.957 6.4812C149.324 5.7421 148.329 5.36134 147.059 5.36134C146.635 5.36134 146.28 5.43694 145.856 5.50973C145.786 5.58252 145.648 5.58252 145.575 5.58252C145.083 5.80649 144.583 6.03046 144.091 6.32722L144.302 5.43414L143.307 5.06738L142.177 8.93369L143.239 9.38443C143.596 8.70692 144.018 8.11619 144.515 7.81663C144.943 7.51987 145.359 7.2959 145.856 7.2959C145.929 7.22311 146.067 7.22311 146.14 7.22311C146.702 7.22311 147.2 7.44428 147.554 7.81663C147.835 8.11619 148.043 8.63692 148.043 9.30884V10.2019C147.759 10.1263 147.554 10.1263 147.334 10.1263H145.853C144.369 10.2019 143.236 10.5715 142.39 11.249C141.401 12.0609 140.909 13.1835 140.909 14.5946C140.909 15.79 141.263 16.7559 141.963 17.5006C142.671 18.3237 143.52 18.6876 144.583 18.6876C145.004 18.6876 145.432 18.6876 145.856 18.5421C146.067 18.4721 146.213 18.3937 146.418 18.2425C146.986 17.9485 147.556 17.5006 148.046 16.9015L148.329 18.3237H152V17.1282L150.946 17.1338ZM148.046 13.8555C148.046 14.7485 147.835 15.4932 147.478 15.9412C147.056 16.4619 146.562 16.6859 145.856 16.6859C145.218 16.6859 144.723 16.4619 144.302 16.0112C143.877 15.566 143.664 14.9669 143.664 14.225C143.664 13.3291 144.018 12.6628 144.583 12.1393C144.943 11.7669 145.359 11.5458 145.856 11.3946C146.213 11.3162 146.564 11.3162 146.913 11.3162H147.478C147.694 11.3162 147.835 11.3946 148.046 11.3946V13.8555Z" fill="#138FCE"/>
<path fill-rule="evenodd" clip-rule="evenodd" d="M68.4855 4.47383V0H57.0347V4.47383H52.0879V19.7403H57.0347V24.5836H68.4855V19.7403H73.2918V4.47383H68.4855ZM72.5133 18.3264H67.4962V17.1338H68.5586V9.61117C68.5586 8.93645 68.4124 8.49411 68.1314 8.12176C67.8475 7.8222 67.4287 7.60102 66.8553 7.60102C66.4337 7.60102 66.0121 7.755 65.5905 7.97338C65.0958 8.19735 64.6714 8.49691 64.2442 8.93925V17.1366H65.3066V18.332H60.2895V17.1366H61.3463V9.61397C61.3463 8.93925 61.203 8.49691 60.9219 8.12456C60.6437 7.825 60.2164 7.60382 59.6487 7.60382C59.2973 7.60382 58.8757 7.7578 58.3726 7.97618C57.951 8.20015 57.535 8.49971 57.1078 8.94205V17.1394H58.1702V18.3348H53.1475V17.1394H54.21V7.60382L53.1475 7.90059V6.71074L56.9645 5.4453H57.1078L57.0347 7.45544C57.8836 6.71074 58.5919 6.19001 59.2271 5.89324C59.8623 5.51809 60.5003 5.36971 61.0653 5.36971C61.6977 5.36971 62.2654 5.59088 62.8332 5.96603C63.3953 6.33839 63.7495 6.85912 64.0334 7.53103C64.8091 6.78353 65.5905 6.2656 66.2229 5.89324C66.9284 5.59088 67.5636 5.36971 68.1314 5.36971C69.191 5.36971 69.9696 5.75046 70.5317 6.41678C71.0995 7.08029 71.4508 8.05457 71.4508 9.24441V17.1394H72.5161V18.3264H72.5133Z" fill="#E2202C"/>
</svg>
